PathFileType	4	(X/Y/Z)	C:\Documents and Settings\user\My Documents\MotionFiles\BioEngCompLab_Data\Delaware\Subject 2\Static1_smoothed.trc
DataRate	CameraRate	NumFrames	NumMarkers	Units	OrigDataRate	OrigDataStartFrame	OrigNumFrames
60.00	60.00	       5	49	mm	60.00	113	       300
Frame#	Time	R.ASIS			L.ASIS			V.Sacral			R.Thigh.Upper			R.Thigh.Front			R.Thigh.Rear			L.Thigh.Upper			L.Thigh.Front			L.Thigh.Rear			R.Knee.Lat			R.Knee.Med			L.Knee.Lat			L.Knee.Med			R.Shank.Upper			R.Shank.Front			R.Shank.Rear			L.Shank.Upper			L.Shank.Front			L.Shank.Rear			R.Ankle.Lat			R.Ankle.Med			L.Ankle.Lat			L.Ankle.Med			R.Heel			R.Midfoot.Sup			R.Midfoot.Lat			R.Toe.Tip			L.Heel			L.Midfoot.Sup			L.Midfoot.Lat			L.Toe.Tip			Sternum			R.Acromium			L.Acromium			R.Bicep			L.Bicep			R.Elbow			L.Elbow			R.Wrist.Med			R.Wrist.Lat			L.Wrist.Med			L.Wrist.Lat			R.Toe.Lat			R.Toe.Med			L.Toe.Lat			L.Toe.Med			R.Temple			L.Temple			Top.Head			
		X1	Y1	Z1	X2	Y2	Z2	X3	Y3	Z3	X4	Y4	Z4	X5	Y5	Z5	X6	Y6	Z6	X7	Y7	Z7	X8	Y8	Z8	X9	Y9	Z9	X10	Y10	Z10	X11	Y11	Z11	X12	Y12	Z12	X13	Y13	Z13	X14	Y14	Z14	X15	Y15	Z15	X16	Y16	Z16	X17	Y17	Z17	X18	Y18	Z18	X19	Y19	Z19	X20	Y20	Z20	X21	Y21	Z21	X22	Y22	Z22	X23	Y23	Z23	X24	Y24	Z24	X25	Y25	Z25	X26	Y26	Z26	X27	Y27	Z27	X28	Y28	Z28	X29	Y29	Z29	X30	Y30	Z30	X31	Y31	Z31	X32	Y32	Z32	X33	Y33	Z33	X34	Y34	Z34	X35	Y35	Z35	X36	Y36	Z36	X37	Y37	Z37	X38	Y38	Z38	X39	Y39	Z39	X40	Y40	Z40	X41	Y41	Z41	X42	Y42	Z42	X43	Y43	Z43	X44	Y44	Z44	X45	Y45	Z45	X46	Y46	Z46	X47	Y47	Z47	X48	Y48	Z48	X49	Y49	Z49	

113	1.867000	623.276610	1069.902830	164.908860	617.113530	1062.371580	-87.797300	422.136720	1065.406250	33.891720	545.456050	761.760680	218.183060	611.326230	697.306700	158.233400	511.987030	666.537900	212.864410	553.021610	763.894470	-146.853200	615.227540	690.140320	-76.123890	531.038640	634.707150	-134.624330	491.634520	543.721010	199.328510	498.356480	527.137080	72.338620	487.643370	548.246400	-119.885190	516.674680	524.887630	-3.106690	483.811520	461.675810	210.514100	532.088500	389.910860	166.793810	469.944700	379.059510	219.553010	461.629270	451.324860	-137.422040	526.068480	371.357210	-100.152890	438.827480	382.825650	-143.378490	431.717190	104.403350	205.616420	451.351010	115.162710	121.997890	420.877170	104.380870	-126.276940	445.164180	109.349970	-37.118480	366.567290	75.406340	161.779500	510.010650	71.991740	129.349300	479.617830	64.833770	228.158680	646.409610	64.080770	166.164730	352.499940	71.472730	-90.067920	495.061490	66.071980	-49.962300	478.618350	54.201330	-151.599350	634.649170	62.417540	-93.771920	614.096620	1459.095210	27.039490	474.596710	1570.911250	210.503560	460.782070	1567.062500	-130.691500	440.538210	1488.403440	386.160830	438.544070	1482.764040	-335.119690	432.948120	1468.447140	487.846560	445.894590	1470.734740	-426.978970	547.092350	1521.819460	735.245120	482.108490	1533.922610	734.440980	579.358090	1497.965210	-662.092350	506.510990	1506.526860	-676.092040	573.726260	49.069130	242.135160	579.404720	39.459580	129.557630	555.616030	36.987960	-170.741130	570.493590	42.855010	-58.274940	577.170040	1701.535030	102.650630	586.243100	1714.771850	-39.760960	604.873470	1807.942260	25.971910	
114	1.883000	623.186580	1069.888550	164.889330	617.069760	1062.391240	-87.767540	422.093780	1065.402340	33.917900	545.455690	761.760860	218.180540	611.284180	697.271120	158.277510	511.996090	666.639710	213.059970	552.982850	763.939880	-146.888900	615.205810	690.111690	-76.128650	530.958250	634.730100	-134.631810	491.639890	543.721740	199.328990	498.255950	527.150450	72.316980	487.316040	548.273860	-119.782680	516.585020	524.884520	-3.134080	483.726750	461.678070	210.515210	532.054570	389.900670	166.816710	469.868800	379.075260	219.583690	461.576510	451.312710	-137.427170	525.999760	371.344390	-100.146130	438.774140	382.856020	-143.354080	431.720580	104.398090	205.612670	451.335080	115.156180	121.979620	420.885740	104.405220	-126.295070	445.117830	109.324070	-37.138720	366.625180	75.373370	161.743420	510.049500	72.041110	129.343220	479.625490	64.914050	228.111110	646.500120	64.098000	166.199480	352.476650	71.508250	-89.983000	495.061460	66.071990	-49.962300	478.598450	54.213490	-151.593280	634.649170	62.417540	-93.771920	614.050960	1459.079590	27.023700	474.682560	1570.834720	210.483510	460.629360	1567.067870	-130.551860	440.346560	1488.313350	386.228910	438.443660	1482.814940	-335.078770	432.891690	1468.420290	487.894070	445.917600	1470.802250	-426.905430	547.023500	1521.893680	735.290220	481.817540	1533.983520	734.479680	579.297120	1498.044680	-662.004520	506.474000	1506.741940	-675.967410	573.767520	49.045630	242.131240	579.448790	39.479710	129.567990	555.652280	37.028240	-170.727840	570.401120	42.808660	-58.337720	576.866270	1701.529420	102.755900	586.075680	1714.814090	-39.728080	604.872740	1807.879760	25.974800	
115	1.900000	623.114010	1069.874510	164.872890	617.024900	1062.405640	-87.738220	422.094020	1065.391850	33.924280	545.448730	761.764040	218.170000	611.226140	697.230770	158.333620	512.039310	666.781740	213.386980	552.929750	763.947200	-146.918950	615.199950	690.092290	-76.130910	530.862000	634.755430	-134.628230	491.643590	543.721620	199.329160	498.207580	527.153990	72.305540	486.774020	548.306340	-119.583880	516.482790	524.916140	-3.132470	483.656680	461.681120	210.516680	532.015990	389.890260	166.818600	469.771180	379.089450	219.615570	461.513180	451.301120	-137.431750	525.954530	371.332980	-100.133780	438.730320	382.915410	-143.320980	431.719090	104.400410	205.614320	451.316960	115.148760	121.958830	420.886440	104.414600	-126.301110	445.076510	109.300820	-37.156290	366.657140	75.348780	161.731110	510.080140	72.079690	129.338360	479.643250	64.962230	228.085950	646.610900	64.119630	166.242370	352.419220	71.505020	-89.895680	495.061460	66.072010	-49.962300	478.579500	54.215310	-151.593170	634.649170	62.417540	-93.771920	614.023010	1459.081910	27.032700	474.746700	1570.780640	210.496110	460.536290	1567.074220	-130.447460	440.218510	1488.264890	386.286680	438.295230	1482.904420	-335.015260	432.837980	1468.394410	487.941380	445.932070	1470.836670	-426.883360	546.933590	1521.991090	735.360230	481.500460	1534.075930	734.501220	579.218810	1498.123050	-661.950130	506.489290	1506.974120	-675.774050	573.783140	49.036730	242.129760	579.476320	39.458740	129.564700	555.673400	37.057780	-170.717040	570.201600	42.712450	-58.453510	576.485230	1701.502930	102.889730	585.887330	1714.890500	-39.652820	604.872380	1807.796020	25.973830	
116	1.917000	623.064700	1069.864260	164.861590	616.984860	1062.420040	-87.711330	422.122310	1065.374390	33.912030	545.436460	761.769780	218.152310	611.153200	697.191770	158.382610	512.098880	666.931090	213.774120	552.869200	763.909610	-146.936740	615.211850	690.088440	-76.135280	530.780030	634.777830	-134.623580	491.646850	543.720640	199.329060	498.199740	527.154360	72.303600	486.317960	548.332700	-119.411000	516.378540	524.985410	-3.091480	483.615450	461.685180	210.516140	531.959720	389.874480	166.809360	469.679840	379.096250	219.645490	461.430450	451.286710	-137.437240	525.918210	371.321690	-100.124020	438.710360	382.967160	-143.295960	431.713960	104.408410	205.620030	451.306340	115.144410	121.946660	420.884220	104.415370	-126.300740	445.052640	109.286740	-37.164540	366.660920	75.329060	161.736310	510.097440	72.100830	129.335570	479.660980	64.945000	228.092250	646.685970	64.134810	166.271800	352.366270	71.473220	-89.853460	495.061370	66.072040	-49.962290	478.567350	54.205360	-151.599550	634.649170	62.417540	-93.771920	613.999390	1459.112550	27.089180	474.756070	1570.762080	210.568510	460.480770	1567.086670	-130.374830	440.127870	1488.295290	386.332090	438.102780	1483.022710	-334.932460	432.783720	1468.370610	487.989010	445.948210	1470.841310	-426.896270	546.827640	1522.078610	735.470400	481.179500	1534.180300	734.535950	579.103880	1498.204470	-661.942570	506.521360	1507.189700	-675.595460	573.770260	49.044070	242.130980	579.487670	39.412960	129.552550	555.674870	37.059720	-170.716350	570.006900	42.619920	-58.576360	576.200380	1701.470950	103.040120	585.722410	1714.975340	-39.562600	604.862850	1807.717900	25.993450	
117	1.933000	623.039000	1069.862670	164.856900	616.956180	1062.433720	-87.695360	422.128140	1065.358890	33.899640	545.425900	761.775150	218.136990	611.060300	697.155700	158.417950	512.133000	667.056210	214.100040	552.808720	763.845210	-146.943660	615.240660	690.102970	-76.144680	530.731930	634.791870	-134.621430	491.651210	543.719180	199.328740	498.185300	527.145450	72.296750	486.055050	548.355410	-119.316560	516.246460	525.058840	-3.040870	483.597470	461.692600	210.510970	531.885010	389.851470	166.802700	469.620390	379.096250	219.665740	461.347050	451.271550	-137.443040	525.893490	371.326260	-100.139630	438.700070	382.984380	-143.281720	431.716000	104.405200	205.617740	451.300870	115.142170	121.940380	420.881930	104.413010	-126.298390	445.051510	109.284130	-37.159390	366.629360	75.314360	161.750370	510.105960	72.109870	129.334050	479.653020	64.894070	228.112820	646.688050	64.135600	166.272860	352.339720	71.433210	-89.868590	495.061280	66.072110	-49.962290	478.562650	54.190010	-151.608700	634.649170	62.417540	-93.771920	613.971800	1459.152710	27.196100	474.724670	1570.766480	210.687530	460.454500	1567.106080	-130.326200	440.031100	1488.392580	386.374660	437.906800	1483.138430	-334.849030	432.720030	1468.350830	488.038300	445.971040	1470.827880	-426.926270	546.691590	1522.136110	735.611880	480.842070	1534.281740	734.613340	578.955930	1498.295900	-661.970830	506.537870	1507.359740	-675.485470	573.746400	49.057640	242.133240	579.475770	39.369540	129.538730	555.656490	37.026520	-170.729510	569.945980	42.595680	-58.629940	576.158690	1701.448000	103.186310	585.622800	1715.044680	-39.479750	604.831670	1807.678220	26.045790	
